<svg width="512" height="512" viewBox="0 0 512 512" fill="none" xmlns="http://www.w3.org/2000/svg">
<circle cx="256" cy="256" r="256" fill="#D9D9D9"/>
<path d="M193.91 129.208C226.005 100.454 267.608 104.628 305.078 126.839C328.971 141.002 347.504 161.898 357.524 183.727C367.407 205.255 368.828 227.203 359.743 244.578L359.303 245.402C342.941 275.332 314.896 285.604 287.507 279.311C253.987 271.605 223.368 276.812 203.77 296.424C184.443 315.764 176.933 348.005 186.543 392.183L187.014 394.295C190.588 409.97 184.366 423.045 172.842 432.249C161.193 441.552 144.239 446.728 127.3 445.917C110.414 445.109 93.9509 438.382 82.8994 424.406C71.8691 410.457 65.7499 388.673 70.7803 356.79C88.2442 246.084 140.349 177.197 193.91 129.208ZM413.509 142.781C436.927 129.736 463.26 135.304 473.075 152.991C482.896 170.688 473.731 196.031 450.314 209.076C426.896 222.122 400.564 216.554 390.749 198.866C380.929 181.169 390.092 155.826 413.509 142.781ZM361.918 90.7949C374.969 78.1443 392.797 77.4575 401.912 86.8896C411.035 96.3307 409.771 114.18 396.735 126.829C383.7 139.477 365.858 140.165 356.742 130.732C347.618 121.29 348.872 103.441 361.918 90.7949ZM302.494 60.4873C312.512 46.95 328.624 43.7062 338.273 50.8779L338.275 50.8799C347.934 58.0472 349.533 74.4555 339.518 87.9893L339.516 87.9912C329.513 101.525 313.388 104.772 303.738 97.5996C294.075 90.4173 292.48 74.0194 302.494 60.4873ZM238.018 50.3877C243.462 36.5982 256.34 30.3154 265.972 34.1191C275.609 37.925 280.751 51.3617 275.309 65.1455L275.307 65.1484C269.877 78.9335 256.989 85.216 247.357 81.4014C237.713 77.5814 232.577 64.167 238.018 50.3877Z" fill="#0F8F63" stroke="#0B7A54" stroke-width="8"/>
<mask id="path-3-outside-1_1_109" maskUnits="userSpaceOnUse" x="92" y="145" width="304" height="226" fill="black">
<rect fill="white" x="92" y="145" width="304" height="226"/>
<path d="M104.068 363L190.468 153H240.868L326.068 363H278.968L257.668 308.1H170.968L149.368 363H104.068ZM184.468 273H244.468L214.768 195.6L184.468 273ZM343.894 363V153H387.694V363H343.894Z"/>
</mask>
<path d="M104.068 363L190.468 153H240.868L326.068 363H278.968L257.668 308.1H170.968L149.368 363H104.068ZM184.468 273H244.468L214.768 195.6L184.468 273ZM343.894 363V153H387.694V363H343.894Z" fill="#E3EBE6"/>
<path d="M104.068 363L96.6693 359.956L92.1255 371H104.068V363ZM190.468 153V145H185.108L183.069 149.956L190.468 153ZM240.868 153L248.281 149.992L246.255 145H240.868V153ZM326.068 363V371H337.947L333.481 359.992L326.068 363ZM278.968 363L271.509 365.894L273.49 371H278.968V363ZM257.668 308.1L265.126 305.206L263.145 300.1H257.668V308.1ZM170.968 308.1V300.1H165.518L163.523 305.171L170.968 308.1ZM149.368 363V371H154.817L156.812 365.929L149.368 363ZM184.468 273L177.018 270.084L172.745 281H184.468V273ZM244.468 273V281H256.106L251.937 270.134L244.468 273ZM214.768 195.6L222.237 192.734L214.842 173.464L207.318 192.684L214.768 195.6ZM104.068 363L111.466 366.044L197.866 156.044L190.468 153L183.069 149.956L96.6693 359.956L104.068 363ZM190.468 153V161H240.868V153V145H190.468V153ZM240.868 153L233.454 156.008L318.654 366.008L326.068 363L333.481 359.992L248.281 149.992L240.868 153ZM326.068 363V355H278.968V363V371H326.068V363ZM278.968 363L286.426 360.106L265.126 305.206L257.668 308.1L250.209 310.994L271.509 365.894L278.968 363ZM257.668 308.1V300.1H170.968V308.1V316.1H257.668V308.1ZM170.968 308.1L163.523 305.171L141.923 360.071L149.368 363L156.812 365.929L178.412 311.029L170.968 308.1ZM149.368 363V355H104.068V363V371H149.368V363ZM184.468 273V281H244.468V273V265H184.468V273ZM244.468 273L251.937 270.134L222.237 192.734L214.768 195.6L207.299 198.466L236.999 275.866L244.468 273ZM214.768 195.6L207.318 192.684L177.018 270.084L184.468 273L191.917 275.916L222.217 198.516L214.768 195.6ZM343.894 363H335.894V371H343.894V363ZM343.894 153V145H335.894V153H343.894ZM387.694 153H395.694V145H387.694V153ZM387.694 363V371H395.694V363H387.694ZM343.894 363H351.894V153H343.894H335.894V363H343.894ZM343.894 153V161H387.694V153V145H343.894V153ZM387.694 153H379.694V363H387.694H395.694V153H387.694ZM387.694 363V355H343.894V363V371H387.694V363Z" fill="#0B7A54" mask="url(#path-3-outside-1_1_109)"/>
</svg>
